<svg width="240.78754882812498px" height="156.807470703125px" xmlns="http://www.w3.org/2000/svg" viewBox="129.60622558593752 -3.403735351562503 240.78754882812498 156.807470703125" style="background: none;" preserveAspectRatio="xMidYMid"><defs><filter id="editing-hole" x="-100%" y="-100%" width="300%" height="300%"><feFlood flood-color="#b83128" result="black"></feFlood><feMorphology operator="dilate" radius="2" in="SourceGraphic" result="erode"></feMorphology><feGaussianBlur in="erode" stdDeviation="4" result="blur"></feGaussianBlur><feOffset in="blur" dx="2" dy="2" result="offset"></feOffset><feComposite operator="atop" in="offset" in2="black" result="merge"></feComposite><feComposite operator="in" in="merge" in2="SourceGraphic" result="inner-shadow"></feComposite></filter></defs><g filter="url(#editing-hole)"><g transform="translate(168.01500606536865, 98.02937507629395)"><path d="M34.05-19.46L34.05-0.06L34.05-0.06Q33.41 0.13 32.03 0.32L32.03 0.32L32.03 0.32Q30.66 0.51 29.18 0.51L29.18 0.51L29.18 0.51Q27.78 0.51 26.66 0.32L26.66 0.32L26.66 0.32Q25.54 0.13 24.77-0.45L24.77-0.45L24.77-0.45Q24-1.02 23.58-2.02L23.58-2.02L23.58-2.02Q23.17-3.01 23.17-4.61L23.17-4.61L23.17-18.82L23.17-18.82Q23.17-21.44 21.86-22.50L21.86-22.50L21.86-22.50Q20.54-23.55 18.62-23.55L18.62-23.55L18.62-23.55Q17.34-23.55 16.19-23.23L16.19-23.23L16.19-23.23Q15.04-22.91 14.34-22.46L14.34-22.46L14.34-0.06L14.34-0.06Q13.70 0.13 12.32 0.32L12.32 0.32L12.32 0.32Q10.94 0.51 9.47 0.51L9.47 0.51L9.47 0.51Q8.06 0.51 6.94 0.32L6.94 0.32L6.94 0.32Q5.82 0.13 5.06-0.45L5.06-0.45L5.06-0.45Q4.29-1.02 3.87-2.02L3.87-2.02L3.87-2.02Q3.46-3.01 3.46-4.61L3.46-4.61L3.46-41.73L3.46-41.73Q4.16-41.86 5.54-42.08L5.54-42.08L5.54-42.08Q6.91-42.30 8.32-42.30L8.32-42.30L8.32-42.30Q9.73-42.30 10.85-42.11L10.85-42.11L10.85-42.11Q11.97-41.92 12.74-41.34L12.74-41.34L12.74-41.34Q13.50-40.77 13.92-39.78L13.92-39.78L13.92-39.78Q14.34-38.78 14.34-37.18L14.34-37.18L14.34-30.91L14.34-30.91Q15.17-31.23 16.86-31.65L16.86-31.65L16.86-31.65Q18.56-32.06 20.61-32.06L20.61-32.06L20.61-32.06Q26.94-32.06 30.50-28.90L30.50-28.90L30.50-28.90Q34.05-25.73 34.05-19.46L34.05-19.46ZM40.51-39.74L40.51-39.74L40.51-39.74Q40.51-42.18 42.14-43.84L42.14-43.84L42.14-43.84Q43.78-45.50 46.46-45.50L46.46-45.50L46.46-45.50Q49.15-45.50 50.78-43.84L50.78-43.84L50.78-43.84Q52.42-42.18 52.42-39.74L52.42-39.74L52.42-39.74Q52.42-37.31 50.78-35.65L50.78-35.65L50.78-35.65Q49.15-33.98 46.46-33.98L46.46-33.98L46.46-33.98Q43.78-33.98 42.14-35.65L42.14-35.65L42.14-35.65Q40.51-37.31 40.51-39.74ZM51.90-26.11L51.90-0.06L51.90-0.06Q51.20 0.06 49.82 0.29L49.82 0.29L49.82 0.29Q48.45 0.51 47.04 0.51L47.04 0.51L47.04 0.51Q45.63 0.51 44.51 0.32L44.51 0.32L44.51 0.32Q43.39 0.13 42.62-0.45L42.62-0.45L42.62-0.45Q41.86-1.02 41.44-2.02L41.44-2.02L41.44-2.02Q41.02-3.01 41.02-4.61L41.02-4.61L41.02-30.66L41.02-30.66Q41.73-30.78 43.10-31.01L43.10-31.01L43.10-31.01Q44.48-31.23 45.89-31.23L45.89-31.23L45.89-31.23Q47.30-31.23 48.42-31.04L48.42-31.04L48.42-31.04Q49.54-30.85 50.30-30.27L50.30-30.27L50.30-30.27Q51.07-29.70 51.49-28.70L51.49-28.70L51.49-28.70Q51.90-27.71 51.90-26.11L51.90-26.11ZM69.70-20.35L69.70-10.69L69.70-10.69Q69.70-9.02 70.75-8.32L70.75-8.32L70.75-8.32Q71.81-7.62 73.73-7.62L73.73-7.62L73.73-7.62Q74.69-7.62 75.71-7.78L75.71-7.78L75.71-7.78Q76.74-7.94 77.50-8.19L77.50-8.19L77.50-8.19Q78.08-7.49 78.50-6.62L78.50-6.62L78.50-6.62Q78.91-5.76 78.91-4.54L78.91-4.54L78.91-4.54Q78.91-2.11 77.09-0.58L77.09-0.58L77.09-0.58Q75.26 0.96 70.66 0.96L70.66 0.96L70.66 0.96Q65.02 0.96 61.98-1.60L61.98-1.60L61.98-1.60Q58.94-4.16 58.94-9.92L58.94-9.92L58.94-37.31L58.94-37.31Q59.65-37.50 60.96-37.73L60.96-37.73L60.96-37.73Q62.27-37.95 63.74-37.95L63.74-37.95L63.74-37.95Q66.56-37.95 68.13-36.96L68.13-36.96L68.13-36.96Q69.70-35.97 69.70-32.77L69.70-32.77L69.70-28.67L78.08-28.67L78.08-28.67Q78.46-27.97 78.82-26.91L78.82-26.91L78.82-26.91Q79.17-25.86 79.17-24.58L79.17-24.58L79.17-24.58Q79.17-22.34 78.18-21.34L78.18-21.34L78.18-21.34Q77.18-20.35 75.52-20.35L75.52-20.35L69.70-20.35ZM106.69 0L85.50 0L85.50 0Q84.48-0.90 83.87-2.11L83.87-2.11L83.87-2.11Q83.26-3.33 83.26-4.86L83.26-4.86L83.26-4.86Q83.26-6.14 83.87-7.39L83.87-7.39L83.87-7.39Q84.48-8.64 85.38-9.73L85.38-9.73L96.38-22.66L84.61-22.66L84.61-22.66Q84.22-23.36 83.87-24.45L83.87-24.45L83.87-24.45Q83.52-25.54 83.52-26.82L83.52-26.82L83.52-26.82Q83.52-29.06 84.51-30.05L84.51-30.05L84.51-30.05Q85.50-31.04 87.17-31.04L87.17-31.04L107.33-31.04L107.33-31.04Q108.35-30.14 108.96-28.93L108.96-28.93L108.96-28.93Q109.57-27.71 109.57-26.18L109.57-26.18L109.57-26.18Q109.57-24.90 108.96-23.65L108.96-23.65L108.96-23.65Q108.35-22.40 107.46-21.31L107.46-21.31L96.70-8.38L109.25-8.38L109.25-8.38Q109.63-7.68 109.98-6.59L109.98-6.59L109.98-6.59Q110.34-5.50 110.34-4.22L110.34-4.22L110.34-4.22Q110.34-1.98 109.34-0.99L109.34-0.99L109.34-0.99Q108.35 0 106.69 0L106.69 0ZM128.51-6.91L128.51-6.91L128.51-6.91Q129.60-6.91 130.91-7.14L130.91-7.14L130.91-7.14Q132.22-7.36 132.86-7.74L132.86-7.74L132.86-12.86L128.26-12.48L128.26-12.48Q126.46-12.35 125.31-11.71L125.31-11.71L125.31-11.71Q124.16-11.07 124.16-9.79L124.16-9.79L124.16-9.79Q124.16-8.51 125.15-7.71L125.15-7.71L125.15-7.71Q126.14-6.91 128.51-6.91ZM128.00-32.06L128.00-32.06L128.00-32.06Q131.46-32.06 134.30-31.36L134.30-31.36L134.30-31.36Q137.15-30.66 139.17-29.22L139.17-29.22L139.17-29.22Q141.18-27.78 142.27-25.57L142.27-25.57L142.27-25.57Q143.36-23.36 143.36-20.35L143.36-20.35L143.36-6.02L143.36-6.02Q143.36-4.35 142.43-3.30L142.43-3.30L142.43-3.30Q141.50-2.24 140.22-1.47L140.22-1.47L140.22-1.47Q136.06 1.02 128.51 1.02L128.51 1.02L128.51 1.02Q125.12 1.02 122.40 0.38L122.40 0.38L122.40 0.38Q119.68-0.26 117.73-1.54L117.73-1.54L117.73-1.54Q115.78-2.82 114.72-4.80L114.72-4.80L114.72-4.80Q113.66-6.78 113.66-9.41L113.66-9.41L113.66-9.41Q113.66-13.82 116.29-16.19L116.29-16.19L116.29-16.19Q118.91-18.56 124.42-19.14L124.42-19.14L132.80-20.03L132.80-20.48L132.80-20.48Q132.80-22.34 131.17-23.14L131.17-23.14L131.17-23.14Q129.54-23.94 126.46-23.94L126.46-23.94L126.46-23.94Q124.03-23.94 121.73-23.42L121.73-23.42L121.73-23.42Q119.42-22.91 117.57-22.14L117.57-22.14L117.57-22.14Q116.74-22.72 116.16-23.90L116.16-23.90L116.16-23.90Q115.58-25.09 115.58-26.37L115.58-26.37L115.58-26.37Q115.58-28.03 116.38-29.02L116.38-29.02L116.38-29.02Q117.18-30.02 118.85-30.72L118.85-30.72L118.85-30.72Q120.70-31.42 123.23-31.74L123.23-31.74L123.23-31.74Q125.76-32.06 128.00-32.06ZM148.10-5.18L148.10-5.18L148.10-5.18Q148.10-7.87 149.76-9.66L149.76-9.66L149.76-9.66Q151.42-11.46 154.30-11.46L154.30-11.46L154.30-11.46Q157.18-11.46 158.85-9.66L158.85-9.66L158.85-9.66Q160.51-7.87 160.51-5.18L160.51-5.18L160.51-5.18Q160.51-2.50 158.85-0.70L158.85-0.70L158.85-0.70Q157.18 1.09 154.30 1.09L154.30 1.09L154.30 1.09Q151.42 1.09 149.76-0.70L149.76-0.70L149.76-0.70Q148.10-2.50 148.10-5.18Z" fill="#e9b6ae"></path></g></g><style>text {
  font-size: 64px;
  font-family: Arial Black;
  dominant-baseline: central;
  text-anchor: middle;
}</style></svg>