<svg width="215.7974609375px" height="125.61252441406249px" xmlns="http://www.w3.org/2000/svg" viewBox="142.10126953125 12.193737792968754 215.7974609375 125.61252441406249" style="background: none;" preserveAspectRatio="xMidYMid"><defs><filter id="editing-hole" x="-100%" y="-100%" width="300%" height="300%"><feFlood flood-color="#ce6260" result="black"></feFlood><feMorphology operator="dilate" radius="2" in="SourceGraphic" result="erode"></feMorphology><feGaussianBlur in="erode" stdDeviation="4" result="blur"></feGaussianBlur><feOffset in="blur" dx="2" dy="2" result="offset"></feOffset><feComposite operator="atop" in="offset" in2="black" result="merge"></feComposite><feComposite operator="in" in="merge" in2="SourceGraphic" result="inner-shadow"></feComposite></filter></defs><g filter="url(#editing-hole)"><g transform="translate(177.67999649047852, 99.38249969482422)"><path d="M18.88-32L18.88-32Q24.83-32 27.97-28.10L27.97-28.10L27.97-28.10Q31.10-24.19 31.10-17.47L31.10-17.47L31.10 0L25.34 0L25.34-16.77L25.34-16.77Q25.34-21.95 23.46-24.42L23.46-24.42L23.46-24.42Q21.57-26.88 17.60-26.88L17.60-26.88L17.60-26.88Q15.17-26.88 13.12-25.76L13.12-25.76L13.12-25.76Q11.07-24.64 9.66-22.59L9.66-22.59L9.66 0L3.84 0L3.84-48L9.66-48L9.66-28.35L9.66-28.35Q11.52-30.14 13.73-31.07L13.73-31.07L13.73-31.07Q15.94-32 18.88-32L18.88-32ZM38.59-38.40L38.59-44.80L44.35-44.80L44.35-38.40L38.59-38.40ZM38.59 0L38.59-31.36L44.35-31.36L44.35 0L38.59 0ZM62.98 0.64L62.98 0.64Q58.82 0.64 56.80-1.54L56.80-1.54L56.80-1.54Q54.78-3.71 54.78-6.85L54.78-6.85L54.78-26.88L49.41-26.88L49.92-31.36L54.78-31.36L54.78-39.10L60.54-39.68L60.54-31.36L68.80-31.36L68.80-26.88L60.54-26.88L60.54-10.37L60.54-10.37Q60.54-7.10 60.93-5.89L60.93-5.89L60.93-5.89Q61.31-4.67 62.56-4.32L62.56-4.32L62.56-4.32Q63.81-3.97 67.14-3.97L67.14-3.97L68.61-3.97L68.16 0.64L62.98 0.64ZM98.37-31.36L80.90-5.06L98.05-5.06L98.05 0L71.23 0L88.70-26.30L72.26-26.30L72.26-31.36L98.37-31.36ZM111.17 0.64L111.17 0.64Q106.82 0.64 104.16-1.92L104.16-1.92L104.16-1.92Q101.50-4.48 101.50-8.45L101.50-8.45L101.50-8.45Q101.50-14.40 107.14-16.96L107.14-16.96L107.14-16.96Q112.77-19.52 120.26-19.65L120.26-19.65L120.26-19.65Q120.26-23.87 118.62-25.38L118.62-25.38L118.62-25.38Q116.99-26.88 113.41-26.88L113.41-26.88L113.41-26.88Q111.42-26.88 109.44-26.27L109.44-26.27L109.44-26.27Q107.46-25.66 105.15-24.06L105.15-24.06L104.32-28.74L104.32-28.74Q106.24-30.21 109.06-31.10L109.06-31.10L109.06-31.10Q111.87-32 114.94-32L114.94-32L114.94-32Q118.98-32 121.38-30.59L121.38-30.59L121.38-30.59Q123.78-29.18 124.90-25.92L124.90-25.92L124.90-25.92Q126.02-22.66 126.02-16.96L126.02-16.96L126.02-10.56L126.02-10.56Q126.02-8 126.24-6.69L126.24-6.69L126.24-6.69Q126.46-5.38 127.23-4.67L127.23-4.67L127.23-4.67Q128-3.97 129.60-3.97L129.60-3.97L130.18-3.97L129.28 0.64L128.83 0.64L128.83 0.64Q126.14 0.64 124.61 0.13L124.61 0.13L124.61 0.13Q123.07-0.38 122.27-1.34L122.27-1.34L122.27-1.34Q121.47-2.30 120.77-3.97L120.77-3.97L120.77-3.97Q116.80 0.64 111.17 0.64L111.17 0.64ZM112.26-3.97L112.26-3.97Q114.56-3.97 116.70-5.12L116.70-5.12L116.70-5.12Q118.85-6.27 120.26-8.19L120.26-8.19L120.26-15.68L120.26-15.68Q113.34-15.42 110.37-13.86L110.37-13.86L110.37-13.86Q107.39-12.29 107.39-8.77L107.39-8.77L107.39-8.77Q107.39-6.34 108.70-5.15L108.70-5.15L108.70-5.15Q110.02-3.97 112.26-3.97L112.26-3.97ZM133.89 0L133.89-6.78L140.80-6.78L140.80 0L133.89 0Z" fill="#ce6260"></path></g></g><style>text {
  font-size: 64px;
  font-family: Arial Black;
  dominant-baseline: central;
  text-anchor: middle;
}</style></svg>